<svg xmlns="http://www.w3.org/2000/svg" viewBox="0 0 900 1200" role="img" aria-label="CASH BLAST">
  <defs>
    <radialGradient id="spot" cx="50%" cy="25%" r="80%">
      <stop offset="0" stop-color="#16a34a"/>
      <stop offset="0.55" stop-color="#052e16"/>
      <stop offset="1" stop-color="#020617"/>
    </radialGradient>
    <filter id="shadow" x="-20%" y="-20%" width="140%" height="140%">
      <feDropShadow dx="0" dy="10" stdDeviation="8" flood-color="#000" flood-opacity=".35"/>
    </filter>
  </defs>
  <rect width="900" height="1200" fill="url(#spot)"/>
  <circle cx="95" cy="100" r="220" fill="#fff" opacity=".06"/>
  <circle cx="830" cy="1020" r="260" fill="#facc15" opacity=".10"/>
  <rect x="70" y="70" width="760" height="1060" rx="58" fill="#ffffff" opacity=".08" stroke="#facc15" stroke-width="5"/>
  <text x="450" y="155" text-anchor="middle" font-family="Arial Black, Arial, sans-serif" font-size="44" font-weight="900" fill="#facc15">PRIZETOWN</text>
  <text x="450" y="214" text-anchor="middle" font-family="Arial, sans-serif" font-size="30" font-weight="800" fill="#dcfce7">CASH PRIZE COMPETITION</text>
  
      <g transform="translate(170 260)">
        <rect x="10" y="45" width="560" height="270" rx="34" fill="#dcfce7" opacity=".18"/>
        <rect x="55" y="85" width="470" height="190" rx="28" fill="#dcfce7"/>
        <circle cx="290" cy="180" r="66" fill="#16a34a"/>
        <text x="290" y="203" text-anchor="middle" font-size="70" font-weight="900" fill="#fff">£</text>
        <circle cx="110" cy="180" r="34" fill="#facc15"/>
        <circle cx="470" cy="180" r="34" fill="#facc15"/>
        <path d="M50 320c140-80 340-80 480 0" fill="none" stroke="#facc15" stroke-width="26" stroke-linecap="round"/>
      </g>
  <text x="450" y="780" text-anchor="middle" font-family="Arial Black, Arial, sans-serif" font-size="80" font-weight="900" fill="#ffffff" filter="url(#shadow)">CASH BLAST</text>
  <text x="450" y="850" text-anchor="middle" font-family="Arial Black, Arial, sans-serif" font-size="52" font-weight="900" fill="#facc15">WIN £500</text>
  <rect x="160" y="920" width="580" height="92" rx="46" fill="#facc15"/>
  <text x="450" y="979" text-anchor="middle" font-family="Arial Black, Arial, sans-serif" font-size="34" font-weight="900" fill="#08101f">ENTER NOW</text>
  <text x="450" y="1082" text-anchor="middle" font-family="Arial, sans-serif" font-size="30" font-weight="800" fill="#fff" opacity=".92">TAP POSTER TO VIEW PRIZE</text>
</svg>
