<svg xmlns="http://www.w3.org/2000/svg" viewBox="0 0 900 1200" role="img" aria-label="FAMILY HAMPER">
  <defs>
    <radialGradient id="spot" cx="50%" cy="25%" r="80%">
      <stop offset="0" stop-color="#f97316"/>
      <stop offset="0.55" stop-color="#1f1307"/>
      <stop offset="1" stop-color="#020617"/>
    </radialGradient>
    <filter id="shadow" x="-20%" y="-20%" width="140%" height="140%">
      <feDropShadow dx="0" dy="10" stdDeviation="8" flood-color="#000" flood-opacity=".35"/>
    </filter>
  </defs>
  <rect width="900" height="1200" fill="url(#spot)"/>
  <circle cx="95" cy="100" r="220" fill="#fff" opacity=".06"/>
  <circle cx="830" cy="1020" r="260" fill="#fde68a" opacity=".10"/>
  <rect x="70" y="70" width="760" height="1060" rx="58" fill="#ffffff" opacity=".08" stroke="#fde68a" stroke-width="5"/>
  <text x="450" y="155" text-anchor="middle" font-family="Arial Black, Arial, sans-serif" font-size="44" font-weight="900" fill="#fde68a">PRIZETOWN</text>
  <text x="450" y="214" text-anchor="middle" font-family="Arial, sans-serif" font-size="30" font-weight="800" fill="#ffedd5">FAMILY COMPETITION</text>
  
      <g transform="translate(170 250)">
        <rect x="45" y="115" width="500" height="300" rx="40" fill="#ffedd5" opacity=".18"/>
        <path d="M120 205h350l-45 190H165l-45-190z" fill="#ffedd5"/>
        <path d="M150 205c35-95 250-95 285 0" fill="none" stroke="#fde68a" stroke-width="28" stroke-linecap="round"/>
        <rect x="195" y="140" width="80" height="80" rx="18" fill="#f97316"/>
        <rect x="315" y="140" width="80" height="80" rx="18" fill="#fde68a"/>
        <circle cx="225" cy="300" r="42" fill="#f97316"/>
        <circle cx="365" cy="300" r="42" fill="#fde68a"/>
        <path d="M195 385h200" stroke="#1f1307" stroke-width="18" stroke-linecap="round" opacity=".8"/>
      </g>
  <text x="450" y="780" text-anchor="middle" font-family="Arial Black, Arial, sans-serif" font-size="80" font-weight="900" fill="#ffffff" filter="url(#shadow)">FAMILY HAMPER</text>
  <text x="450" y="850" text-anchor="middle" font-family="Arial Black, Arial, sans-serif" font-size="52" font-weight="900" fill="#fde68a">FUN PRIZE</text>
  <rect x="160" y="920" width="580" height="92" rx="46" fill="#fde68a"/>
  <text x="450" y="979" text-anchor="middle" font-family="Arial Black, Arial, sans-serif" font-size="34" font-weight="900" fill="#08101f">ENTER NOW</text>
  <text x="450" y="1082" text-anchor="middle" font-family="Arial, sans-serif" font-size="30" font-weight="800" fill="#fff" opacity=".92">TAP POSTER TO VIEW PRIZE</text>
</svg>
