<svg xmlns="http://www.w3.org/2000/svg" viewBox="0 0 900 1200" role="img" aria-label="LUXURY BREAK">
  <defs>
    <radialGradient id="spot" cx="50%" cy="25%" r="80%">
      <stop offset="0" stop-color="#a855f7"/>
      <stop offset="0.55" stop-color="#190713"/>
      <stop offset="1" stop-color="#020617"/>
    </radialGradient>
    <filter id="shadow" x="-20%" y="-20%" width="140%" height="140%">
      <feDropShadow dx="0" dy="10" stdDeviation="8" flood-color="#000" flood-opacity=".35"/>
    </filter>
  </defs>
  <rect width="900" height="1200" fill="url(#spot)"/>
  <circle cx="95" cy="100" r="220" fill="#fff" opacity=".06"/>
  <circle cx="830" cy="1020" r="260" fill="#facc15" opacity=".10"/>
  <rect x="70" y="70" width="760" height="1060" rx="58" fill="#ffffff" opacity=".08" stroke="#facc15" stroke-width="5"/>
  <text x="450" y="155" text-anchor="middle" font-family="Arial Black, Arial, sans-serif" font-size="44" font-weight="900" fill="#facc15">PRIZETOWN</text>
  <text x="450" y="214" text-anchor="middle" font-family="Arial, sans-serif" font-size="30" font-weight="800" fill="#f5d0fe">HOTEL STYLE PRIZE</text>
  
      <g transform="translate(165 250)">
        <rect x="40" y="90" width="500" height="300" rx="38" fill="#f5d0fe" opacity=".15"/>
        <path d="M125 370V155h330v215" fill="#fdf4ff"/>
        <path d="M95 160l195-95 195 95" fill="none" stroke="#facc15" stroke-width="34" stroke-linecap="round" stroke-linejoin="round"/>
        <rect x="175" y="215" width="70" height="70" rx="14" fill="#a855f7"/>
        <rect x="335" y="215" width="70" height="70" rx="14" fill="#a855f7"/>
        <path d="M255 370V275h70v95" fill="#190713"/>
        <path d="M85 405h410" stroke="#facc15" stroke-width="24" stroke-linecap="round"/>
        <path d="M195 95l18-36 18 36 40 6-29 28 7 39-36-19-36 19 7-39-29-28 40-6z" fill="#facc15"/>
      </g>
  <text x="450" y="780" text-anchor="middle" font-family="Arial Black, Arial, sans-serif" font-size="80" font-weight="900" fill="#ffffff" filter="url(#shadow)">LUXURY BREAK</text>
  <text x="450" y="850" text-anchor="middle" font-family="Arial Black, Arial, sans-serif" font-size="52" font-weight="900" fill="#facc15">NIGHT AWAY</text>
  <rect x="160" y="920" width="580" height="92" rx="46" fill="#facc15"/>
  <text x="450" y="979" text-anchor="middle" font-family="Arial Black, Arial, sans-serif" font-size="34" font-weight="900" fill="#08101f">ENTER NOW</text>
  <text x="450" y="1082" text-anchor="middle" font-family="Arial, sans-serif" font-size="30" font-weight="800" fill="#fff" opacity=".92">TAP POSTER TO VIEW PRIZE</text>
</svg>
