<svg xmlns="http://www.w3.org/2000/svg" width="900" height="540" viewBox="0 0 900 540">
  <defs>
    <linearGradient id="g" x1="0" y1="0" x2="1" y2="1">
      <stop offset="0" stop-color="#7c3aed"/>
      <stop offset="1" stop-color="#111827"/>
    </linearGradient>
    <radialGradient id="r" cx="25%" cy="18%" r="70%">
      <stop offset="0" stop-color="#c4b5fd" stop-opacity=".55"/>
      <stop offset=".42" stop-color="#c4b5fd" stop-opacity=".08"/>
      <stop offset="1" stop-color="#111827" stop-opacity="0"/>
    </radialGradient>
    <filter id="shadow" x="-20%" y="-20%" width="140%" height="140%">
      <feDropShadow dx="0" dy="18" stdDeviation="18" flood-color="#000" flood-opacity=".35"/>
    </filter>
  </defs>
  <rect width="900" height="540" fill="url(#g)"/>
  <rect width="900" height="540" fill="url(#r)"/>
  <circle cx="735" cy="90" r="115" fill="#fff" opacity=".10"/>
  <circle cx="790" cy="145" r="72" fill="#fff" opacity=".08"/>
  <path d="M-20 442 C170 360 310 495 510 405 C665 335 740 382 920 315 L920 560 L-20 560 Z" fill="#000" opacity=".22"/>
  <rect x="48" y="48" width="228" height="54" rx="27" fill="#08101f" opacity=".68"/>
  <text x="162" y="83" text-anchor="middle" font-family="Arial, Helvetica, sans-serif" font-size="24" font-weight="800" fill="#c4b5fd" letter-spacing="2">TECH PRIZE</text>
  <g filter="url(#shadow)">
    <rect x="95" y="170" width="710" height="220" rx="34" fill="#08101f" opacity=".38"/>
    <text x="450" y="268" text-anchor="middle" font-family="Arial Black, Arial, Helvetica, sans-serif" font-size="74" font-weight="900" fill="#ffffff" letter-spacing="-2">WIN TECH</text>
    <text x="450" y="330" text-anchor="middle" font-family="Arial, Helvetica, sans-serif" font-size="30" font-weight="800" fill="#c4b5fd">PRIZETOWN COMPETITION</text>
  </g>
  <rect x="590" y="430" width="240" height="62" rx="31" fill="#c4b5fd"/>
  <text x="710" y="471" text-anchor="middle" font-family="Arial, Helvetica, sans-serif" font-size="24" font-weight="900" fill="#08101f">ENTER NOW</text>
</svg>