<svg xmlns="http://www.w3.org/2000/svg" viewBox="0 0 900 1200" role="img" aria-label="TECH BUNDLE">
  <defs>
    <radialGradient id="spot" cx="50%" cy="25%" r="80%">
      <stop offset="0" stop-color="#2563eb"/>
      <stop offset="0.55" stop-color="#07111f"/>
      <stop offset="1" stop-color="#020617"/>
    </radialGradient>
    <filter id="shadow" x="-20%" y="-20%" width="140%" height="140%">
      <feDropShadow dx="0" dy="10" stdDeviation="8" flood-color="#000" flood-opacity=".35"/>
    </filter>
  </defs>
  <rect width="900" height="1200" fill="url(#spot)"/>
  <circle cx="95" cy="100" r="220" fill="#fff" opacity=".06"/>
  <circle cx="830" cy="1020" r="260" fill="#38bdf8" opacity=".10"/>
  <rect x="70" y="70" width="760" height="1060" rx="58" fill="#ffffff" opacity=".08" stroke="#38bdf8" stroke-width="5"/>
  <text x="450" y="155" text-anchor="middle" font-family="Arial Black, Arial, sans-serif" font-size="44" font-weight="900" fill="#38bdf8">PRIZETOWN</text>
  <text x="450" y="214" text-anchor="middle" font-family="Arial, sans-serif" font-size="30" font-weight="800" fill="#dbeafe">PHONE • LAPTOP • TECH</text>
  
      <g transform="translate(165 255)">
        <rect x="35" y="35" width="470" height="285" rx="34" fill="#dbeafe" opacity=".16"/>
        <rect x="95" y="80" width="350" height="210" rx="22" fill="#dbeafe"/>
        <rect x="125" y="110" width="290" height="145" rx="14" fill="#07111f"/>
        <path d="M60 330h420l55 65H5l55-65z" fill="#38bdf8"/>
        <rect x="505" y="95" width="95" height="210" rx="22" fill="#e0f2fe"/>
        <rect x="525" y="130" width="55" height="125" rx="10" fill="#07111f"/>
        <circle cx="552" cy="278" r="8" fill="#2563eb"/>
      </g>
  <text x="450" y="780" text-anchor="middle" font-family="Arial Black, Arial, sans-serif" font-size="80" font-weight="900" fill="#ffffff" filter="url(#shadow)">TECH BUNDLE</text>
  <text x="450" y="850" text-anchor="middle" font-family="Arial Black, Arial, sans-serif" font-size="52" font-weight="900" fill="#38bdf8">GADGET PRIZE</text>
  <rect x="160" y="920" width="580" height="92" rx="46" fill="#38bdf8"/>
  <text x="450" y="979" text-anchor="middle" font-family="Arial Black, Arial, sans-serif" font-size="34" font-weight="900" fill="#08101f">ENTER NOW</text>
  <text x="450" y="1082" text-anchor="middle" font-family="Arial, sans-serif" font-size="30" font-weight="800" fill="#fff" opacity=".92">TAP POSTER TO VIEW PRIZE</text>
</svg>
