<svg xmlns="http://www.w3.org/2000/svg" viewBox="0 0 128 128" role="img" aria-label="Prizetown favicon">
  <defs>
    <linearGradient id="g" x1="0" x2="1" y1="0" y2="1">
      <stop offset="0" stop-color="#facc15"/>
      <stop offset="0.55" stop-color="#f97316"/>
      <stop offset="1" stop-color="#7c3aed"/>
    </linearGradient>
    <filter id="s" x="-20%" y="-20%" width="140%" height="140%">
      <feDropShadow dx="0" dy="6" stdDeviation="5" flood-color="#000" flood-opacity=".35"/>
    </filter>
  </defs>
  <rect width="128" height="128" rx="30" fill="#08101f"/>
  <circle cx="64" cy="64" r="48" fill="url(#g)" filter="url(#s)"/>
  <path d="M39 40h35c14 0 23 8 23 21s-9 22-23 22H57v20H39V40zm18 15v13h15c5 0 8-2 8-7s-3-6-8-6H57z" fill="#08101f"/>
  <path d="M31 31l8-15 8 15 16 3-12 11 2 16-14-8-14 8 2-16-12-11 16-3z" fill="#fff7d6" opacity=".95"/>
</svg>
